# This file uses centimeters as units for non-parametric coordinates.

v -0.919562 0.218683 0.553992
v -0.825032 0.124153 0.553992
v -0.825032 0.218683 0.648522
v 0.825032 0.124153 0.553992
v 0.919562 0.218683 0.553992
v 0.825032 0.218683 0.648522
v -0.825032 0.482292 0.553992
v -0.919562 0.387762 0.553992
v -0.825032 0.387762 0.648522
v 0.919562 0.387762 0.553992
v 0.825032 0.482292 0.553992
v 0.825032 0.387762 0.648522
v -0.825032 0.387762 -0.648522
v -0.919562 0.387762 -0.553992
v -0.825032 0.482292 -0.553992
v 0.919562 0.387762 -0.553992
v 0.825032 0.387762 -0.648522
v 0.825032 0.482292 -0.553992
v -0.825032 0.124153 -0.553992
v -0.919562 0.218683 -0.553992
v -0.825032 0.218683 -0.648522
v 0.919562 0.218683 -0.553992
v 0.825032 0.124153 -0.553992
v 0.825032 0.218683 -0.648522
vt 0.118533 0.598845
vt 0.905754 0.598845
vt 0.905754 0.070243
vt 0.118533 0.070243
vt 0.905754 0.025144
vt 0.905754 0.025144
vt 0.118533 0.025144
vt 0.118533 0.025144
vt 0.073434 0.070243
vt 0.073434 0.598845
vt 0.073434 0.598845
vt 0.073434 0.070243
vt 0.950853 0.598845
vt 0.950853 0.598845
vt 0.950853 0.070243
vt 0.950853 0.070243
vt 0.905754 0.070243
vt 0.905754 0.598845
vt 0.118533 0.598845
vt 0.118533 0.070243
vt 0.905754 0.643944
vt 0.905754 0.643944
vt 0.118533 0.643944
vt 0.118533 0.643944
vt 0.045225 0.971574
vt 0.768454 0.850761
vt 0.841158 0.850761
vt 0.113963 0.971574
vt 0.177807 0.850761
vt 0.707039 0.850761
vt 0.707044 0.971574
vt 0.177806 0.971574
vt 0.177333 0.971574
vt 0.177321 0.850761
vt 0.704815 0.850761
vt 0.704812 0.971574
vt 0.903643 0.850761
vt 0.113561 0.971574
vt 0.117318 0.971574
vt 0.770760 0.850761
vt 0.113963 0.850761
vt 0.841158 0.971574
vt 0.113559 0.850761
vt 0.903645 0.971574
vt 0.770757 0.971574
vt 0.117321 0.850761
vt 0.768451 0.971574
vt 0.045228 0.850761
vn -0.050359 -0.995928 -0.074779
vn 0.050359 -0.995928 -0.074779
vn 0.050359 -0.995928 0.074779
vn -0.050359 -0.995928 0.074779
vn 0.041095 -0.331264 0.942643
vn 0.041095 0.331264 0.942643
vn -0.041095 0.331264 0.942643
vn -0.041095 -0.331264 0.942643
vn -0.942472 0.328712 0.060788
vn -0.942472 0.328712 -0.060788
vn -0.942472 -0.328712 -0.060788
vn -0.942472 -0.328712 0.060788
vn 0.942472 -0.328712 -0.060788
vn 0.942472 0.328712 -0.060788
vn 0.942472 0.328712 0.060788
vn 0.942472 -0.328712 0.060788
vn 0.050359 0.995928 0.074779
vn 0.050359 0.995928 -0.074779
vn -0.050359 0.995928 -0.074779
vn -0.050359 0.995928 0.074779
vn 0.041095 0.331264 -0.942643
vn 0.041095 -0.331264 -0.942643
vn -0.041095 -0.331264 -0.942643
vn -0.041095 0.331264 -0.942643
s 1
f 19/1/1 23/2/2 4/3/3 2/4/4
f 6/25/5 12/48/6 9/27/7 3/42/8
f 8/29/9 14/30/10 20/31/11 1/32/12
f 22/33/13 16/34/14 10/35/15 5/36/16
f 11/17/17 18/18/18 15/19/19 7/20/20
f 17/37/21 24/44/22 21/39/23 13/46/24
f 2/4/4 1/12/12 20/11/11 19/1/1
f 3/8/8 2/4/4 4/3/3 6/5/5
f 1/32/12 3/28/8 9/41/7 8/29/9
f 5/16/16 4/3/3 23/2/2 22/13/13
f 6/47/5 5/36/16 10/35/15 12/26/6
f 8/9/9 7/20/20 15/19/19 14/10/10
f 7/20/20 9/7/7 12/6/6 11/17/17
f 11/17/17 10/15/15 16/14/14 18/18/18
f 14/30/10 13/40/24 21/45/23 20/31/11
f 13/24/24 15/19/19 18/18/18 17/21/21
f 17/43/21 16/34/14 22/33/13 24/38/22
f 19/1/1 21/23/23 24/22/22 23/2/2
f 1/12/12 2/4/4 3/8/8
f 4/3/3 5/16/16 6/5/5
f 7/20/20 8/9/9 9/7/7
f 10/15/15 11/17/17 12/6/6
f 13/24/24 14/10/10 15/19/19
f 16/14/14 17/21/21 18/18/18
f 19/1/1 20/11/11 21/23/23
f 22/13/13 23/2/2 24/22/22
