# This file uses centimeters as units for non-parametric coordinates.

v 0.796791 9.566689 -0.156841
v 2.089345 9.566689 2.081929
v 4.674454 9.566689 2.081929
v 5.967009 9.566689 -0.156841
v -1.095640 11.459120 -0.156842
v 1.143129 11.459120 3.720822
v 5.620669 11.459120 3.720822
v 7.859440 11.459120 -0.156841
v -1.788318 14.044229 -0.156842
v 0.796790 14.044229 4.320698
v 5.967008 14.044229 4.320699
v 8.552117 14.044229 -0.156841
v -1.095640 16.629339 -0.156842
v 1.143129 16.629339 3.720822
v 5.620669 16.629339 3.720822
v 7.859440 16.629339 -0.156841
v 0.796791 18.521770 -0.156841
v 2.089345 18.521770 2.081929
v 4.674454 18.521770 2.081929
v 5.967009 18.521770 -0.156841
v 3.381900 8.874011 -0.156841
v 3.381900 19.214449 -0.156841
v -8.714430 9.119822 -1.103847
v -7.198668 9.119822 1.521530
v -4.167144 9.119822 1.521530
v -2.651382 9.119822 -1.103847
v -10.933659 11.339051 -1.103847
v -8.308283 11.339051 3.443439
v -3.057529 11.339051 3.443440
v -0.432152 11.339051 -1.103847
v -11.745953 14.370575 -1.103848
v -8.714430 14.370575 4.146906
v -2.651382 14.370575 4.146907
v 0.380142 14.370575 -1.103847
v -10.933659 17.402098 -1.103847
v -8.308283 17.402098 3.443439
v -3.057529 17.402098 3.443440
v -0.432152 17.402098 -1.103847
v -8.714430 19.621328 -1.103847
v -7.198668 19.621328 1.521530
v -4.167144 19.621328 1.521530
v -2.651382 19.621328 -1.103847
v -5.682906 8.307528 -1.103847
v -5.682906 20.433622 -1.103847
v -2.558121 16.936890 -0.707264
v -1.042360 16.936890 1.918113
v 1.989164 16.936890 1.918114
v 3.504926 16.936890 -0.707263
v -4.777352 19.156120 -0.707264
v -2.151975 19.156120 3.840023
v 3.098779 19.156120 3.840024
v 5.724155 19.156120 -0.707263
v -5.589645 22.187643 -0.707264
v -2.558122 22.187643 4.543490
v 3.504926 22.187643 4.543490
v 6.536449 22.187643 -0.707263
v -4.777352 25.219166 -0.707264
v -2.151975 25.219166 3.840023
v 3.098779 25.219166 3.840024
v 5.724155 25.219166 -0.707263
v -2.558121 27.438398 -0.707264
v -1.042360 27.438398 1.918113
v 1.989164 27.438398 1.918114
v 3.504926 27.438398 -0.707263
v 0.473402 16.124596 -0.707263
v 0.473402 28.250692 -0.707263
v -9.589054 18.808727 -1.462757
v -8.427145 18.808727 0.549731
v -6.103325 18.808727 0.549731
v -4.941415 18.808727 -1.462756
v -11.290209 20.509878 -1.462757
v -9.277721 20.509878 2.022973
v -5.252748 20.509878 2.022973
v -3.240260 20.509878 -1.462756
v -11.912874 22.833698 -1.462757
v -9.589054 22.833698 2.562217
v -4.941415 22.833698 2.562218
v -2.617595 22.833698 -1.462756
v -11.290209 25.157518 -1.462757
v -9.277721 25.157518 2.022973
v -5.252748 25.157518 2.022973
v -3.240260 25.157518 -1.462756
v -9.589054 26.858673 -1.462757
v -8.427145 26.858673 0.549731
v -6.103325 26.858673 0.549731
v -4.941415 26.858673 -1.462756
v -7.265234 18.186058 -1.462756
v -7.265234 27.481340 -1.462756
v -6.032631 21.434809 -5.454203
v -4.516870 21.434809 -2.828826
v -1.485346 21.434809 -2.828826
v 0.030416 21.434809 -5.454203
v -8.251862 23.654041 -5.454204
v -5.626485 23.654041 -0.906917
v -0.375731 23.654041 -0.906916
v 2.249646 23.654041 -5.454203
v -9.064156 26.685564 -5.454204
v -6.032632 26.685564 -0.203450
v 0.030416 26.685564 -0.203449
v 3.061940 26.685564 -5.454203
v -8.251862 29.717085 -5.454204
v -5.626485 29.717085 -0.906917
v -0.375731 29.717085 -0.906916
v 2.249646 29.717085 -5.454203
v -6.032631 31.936317 -5.454203
v -4.516870 31.936317 -2.828826
v -1.485346 31.936317 -2.828826
v 0.030416 31.936317 -5.454203
v -3.001108 20.622515 -5.454203
v -3.001108 32.748611 -5.454203
v 3.558374 22.567974 -3.992727
v 4.729329 22.567974 -1.964572
v 7.071240 22.567974 -1.964572
v 8.242197 22.567974 -3.992727
v 1.843975 24.282370 -3.992727
v 3.872130 24.282372 -0.479860
v 7.928440 24.282372 -0.479860
v 9.956595 24.282373 -3.992727
v 1.216462 26.624281 -3.992727
v 3.558373 26.624283 0.063583
v 8.242197 26.624283 0.063583
v 10.584108 26.624285 -3.992727
v 1.843975 28.966192 -3.992727
v 3.872130 28.966194 -0.479860
v 7.928440 28.966194 -0.479860
v 9.956595 28.966196 -3.992727
v 3.558373 30.680592 -3.992727
v 4.729329 30.680592 -1.964572
v 7.071240 30.680592 -1.964572
v 8.242197 30.680592 -3.992727
v 5.900285 21.940462 -3.992727
v 5.900285 31.308105 -3.992727
v -13.670702 11.938897 -7.172659
v -12.154940 11.938897 -4.547281
v -9.123416 11.938897 -4.547281
v -7.607654 11.938897 -7.172658
v -15.889931 14.158127 -7.172659
v -13.264556 14.158127 -2.625372
v -8.013801 14.158127 -2.625372
v -5.388424 14.158127 -7.172658
v -16.702225 17.189651 -7.172659
v -13.670702 17.189651 -1.921906
v -7.607654 17.189651 -1.921905
v -4.576130 17.189651 -7.172658
v -15.889930 20.221172 -7.172659
v -13.264555 20.221172 -2.625372
v -8.013801 20.221172 -2.625372
v -5.388423 20.221172 -7.172658
v -13.670700 22.440405 -7.172659
v -12.154939 22.440405 -4.547281
v -9.123416 22.440405 -4.547281
v -7.607654 22.440405 -7.172658
v -10.639177 11.126603 -7.172658
v -10.639177 23.252699 -7.172658
v 6.269338 12.060610 -3.576357
v 7.795187 12.060610 -0.933507
v 10.846888 12.060610 -0.933507
v 12.372736 12.060610 -3.576357
v 4.035337 14.294610 -3.576357
v 6.678186 14.294610 1.001193
v 11.963887 14.294610 1.001194
v 14.606737 14.294610 -3.576357
v 3.217638 17.346308 -3.576358
v 6.269336 17.346308 1.709343
v 12.372735 17.346308 1.709343
v 15.424435 17.346308 -3.576357
v 4.035337 20.398010 -3.576357
v 6.678186 20.398010 1.001194
v 11.963887 20.398010 1.001194
v 14.606736 20.398010 -3.576357
v 6.269338 22.632008 -3.576357
v 7.795187 22.632008 -0.933507
v 10.846888 22.632008 -0.933507
v 12.372735 22.632008 -3.576357
v 9.321036 11.242910 -3.576357
v 9.321036 23.449707 -3.576357
v -3.142409 -0.010679 -0.000000
v -0.000000 -0.010679 1.545395
v 3.142409 -0.010679 0.000000
v -3.142409 14.238938 -0.000000
v -0.000000 14.238938 1.545395
v 3.142409 14.238938 0.000000
v 1.984378 14.238938 1.002499
v 1.984378 -0.010679 1.002499
v -2.112460 14.238938 0.939510
v -2.112460 -0.010679 0.939510
vt 0.189187 0.384055
vt 0.071041 0.501692
vt 0.288934 0.376527
vt 0.244018 0.488856
vt 0.450023 0.377806
vt 0.523264 0.491004
vt 0.511755 0.386142
vt 0.629640 0.506099
vt 0.028213 0.663785
vt 0.227430 0.648801
vt 0.550094 0.651390
vt 0.672684 0.668922
vt 0.071216 0.826726
vt 0.243932 0.813740
vt 0.523130 0.816033
vt 0.629700 0.831332
vt 0.189205 0.946170
vt 0.288891 0.938830
vt 0.450041 0.939963
vt 0.511799 0.949049
vt 0.350724 0.341450
vt 0.350406 0.990758
vt 0.189494 0.383580
vt 0.288890 0.376146
vt 0.244519 0.488535
vt 0.071460 0.501548
vt 0.450034 0.377427
vt 0.523251 0.490785
vt 0.511737 0.386290
vt 0.629696 0.506019
vt 0.227123 0.648784
vt 0.027432 0.663758
vt 0.550036 0.651348
vt 0.672687 0.668908
vt 0.243910 0.814028
vt 0.071011 0.827041
vt 0.523162 0.816262
vt 0.629721 0.831475
vt 0.288754 0.939049
vt 0.189088 0.946565
vt 0.450050 0.940372
vt 0.511768 0.949055
vt 0.350936 0.341711
vt 0.350374 0.991385
vt 0.189588 0.383819
vt 0.288868 0.376333
vt 0.244715 0.488787
vt 0.071547 0.501670
vt 0.449964 0.377614
vt 0.523263 0.490959
vt 0.511756 0.386215
vt 0.629674 0.506088
vt 0.227012 0.648879
vt 0.027287 0.664103
vt 0.550076 0.651614
vt 0.672686 0.669252
vt 0.243902 0.814333
vt 0.070968 0.827346
vt 0.523133 0.816502
vt 0.629713 0.831610
vt 0.288684 0.939170
vt 0.189052 0.946778
vt 0.449987 0.940598
vt 0.511800 0.949058
vt 0.351118 0.341596
vt 0.350347 0.991676
vt 0.189236 0.384023
vt 0.288940 0.376496
vt 0.244035 0.488932
vt 0.071169 0.501735
vt 0.450133 0.377777
vt 0.523239 0.491058
vt 0.511717 0.386151
vt 0.629707 0.506125
vt 0.227406 0.648893
vt 0.027949 0.664141
vt 0.550001 0.651651
vt 0.672687 0.669285
vt 0.243931 0.814245
vt 0.071154 0.827248
vt 0.523192 0.816432
vt 0.629726 0.831565
vt 0.288911 0.939095
vt 0.189186 0.946641
vt 0.450140 0.940457
vt 0.511732 0.949056
vt 0.350584 0.341485
vt 0.350427 0.991455
vt 0.189743 0.383333
vt 0.288831 0.375953
vt 0.245041 0.488274
vt 0.071692 0.501423
vt 0.449848 0.377234
vt 0.523283 0.490606
vt 0.511787 0.386368
vt 0.629637 0.505948
vt 0.226828 0.648686
vt 0.027046 0.663404
vt 0.550141 0.651074
vt 0.672684 0.668553
vt 0.243887 0.813714
vt 0.070897 0.826727
vt 0.523085 0.816016
vt 0.629699 0.831337
vt 0.288568 0.938924
vt 0.188993 0.946345
vt 0.449882 0.940139
vt 0.511854 0.949051
vt 0.351421 0.341829
vt 0.350301 0.991086
vt 0.188657 0.383968
vt 0.289075 0.376453
vt 0.242830 0.488866
vt 0.070626 0.501703
vt 0.450554 0.377734
vt 0.523167 0.491012
vt 0.511605 0.386168
vt 0.629838 0.506106
vt 0.228088 0.648863
vt 0.028859 0.664031
vt 0.549767 0.651568
vt 0.672694 0.669175
vt 0.243984 0.814134
vt 0.071420 0.827135
vt 0.523365 0.816344
vt 0.629776 0.831515
vt 0.289338 0.939046
vt 0.189408 0.946555
vt 0.450519 0.940366
vt 0.511538 0.949055
vt 0.349475 0.341510
vt 0.350595 0.991333
vt 0.189292 0.383773
vt 0.288938 0.376297
vt 0.244097 0.488739
vt 0.071273 0.501646
vt 0.450184 0.377578
vt 0.523225 0.490926
vt 0.511697 0.386229
vt 0.629744 0.506075
vt 0.227362 0.648861
vt 0.027744 0.664037
vt 0.549952 0.651563
vt 0.672689 0.669186
vt 0.243929 0.814274
vt 0.071102 0.827287
vt 0.523224 0.816456
vt 0.629740 0.831584
vt 0.288905 0.939147
vt 0.189165 0.946737
vt 0.450186 0.940555
vt 0.511698 0.949057
vt 0.350543 0.341618
vt 0.350434 0.991620
vt 0.189375 0.383466
vt 0.288930 0.376053
vt 0.244214 0.488489
vt 0.071406 0.501531
vt 0.450220 0.377335
vt 0.523215 0.490755
vt 0.511681 0.386325
vt 0.629776 0.506010
vt 0.227286 0.648809
vt 0.027489 0.663865
vt 0.549911 0.651421
vt 0.672691 0.669019
vt 0.243923 0.814250
vt 0.071037 0.827274
vt 0.523251 0.816438
vt 0.629752 0.831580
vt 0.288880 0.939180
vt 0.189133 0.946799
vt 0.450218 0.940617
vt 0.511671 0.949058
vt 0.350547 0.341779
vt 0.350433 0.991741
vt 0.013419 0.252957
vt 0.014485 0.165372
vt 0.687291 0.165741
vt 0.687855 0.252736
vt 0.016877 0.085085
vt 0.017540 0.008432
vt 0.689713 0.009056
vt 0.688270 0.085882
vt 0.013062 0.325025
vt 0.687917 0.324726
vn -0.603564 -0.717134 0.348467
vn -0.321962 -0.765089 0.557654
vn -0.452519 -0.425332 0.783785
vn -0.802134 -0.376972 0.463112
vn 0.321962 -0.765089 0.557655
vn 0.452519 -0.425332 0.783785
vn 0.603564 -0.717134 0.348468
vn 0.802134 -0.376972 0.463113
vn -0.500000 -0.000000 0.866025
vn -0.866025 0.000000 0.500000
vn 0.500000 -0.000000 0.866026
vn 0.866025 0.000000 0.500000
vn -0.452519 0.425332 0.783785
vn -0.802134 0.376971 0.463112
vn 0.452519 0.425332 0.783786
vn 0.802134 0.376972 0.463113
vn -0.321962 0.765089 0.557655
vn -0.603564 0.717134 0.348468
vn 0.321962 0.765089 0.557655
vn 0.603564 0.717134 0.348468
vn -0.000000 -0.979383 0.202014
vn -0.000000 0.979382 0.202016
vn -0.603564 -0.717134 0.348468
vn -0.321962 -0.765089 0.557655
vn -0.452519 -0.425332 0.783785
vn -0.802134 -0.376972 0.463112
vn 0.321962 -0.765089 0.557655
vn 0.452519 -0.425332 0.783785
vn 0.603564 -0.717134 0.348468
vn 0.802134 -0.376972 0.463112
vn -0.500000 0.000000 0.866025
vn -0.866026 0.000000 0.500000
vn 0.500000 0.000000 0.866025
vn 0.866025 -0.000000 0.500000
vn -0.452519 0.425332 0.783785
vn -0.802134 0.376972 0.463112
vn 0.452519 0.425332 0.783786
vn 0.802134 0.376972 0.463112
vn -0.321962 0.765089 0.557655
vn -0.603564 0.717134 0.348468
vn 0.321962 0.765089 0.557655
vn 0.603564 0.717134 0.348468
vn -0.000000 -0.979382 0.202015
vn 0.000000 0.979382 0.202015
vn -0.603564 -0.717134 0.348467
vn -0.321962 -0.765089 0.557655
vn -0.452519 -0.425332 0.783785
vn -0.802134 -0.376972 0.463112
vn 0.321962 -0.765089 0.557655
vn 0.452519 -0.425332 0.783785
vn 0.603564 -0.717134 0.348468
vn 0.802134 -0.376972 0.463112
vn -0.500000 0.000000 0.866025
vn -0.866025 -0.000000 0.500000
vn 0.500000 0.000000 0.866025
vn 0.866025 0.000000 0.500000
vn -0.452519 0.425332 0.783785
vn -0.802134 0.376972 0.463112
vn 0.452519 0.425332 0.783785
vn 0.802134 0.376972 0.463112
vn -0.321962 0.765089 0.557655
vn -0.603564 0.717134 0.348467
vn 0.321962 0.765089 0.557655
vn 0.603564 0.717134 0.348468
vn -0.000000 -0.979383 0.202015
vn -0.000000 0.979383 0.202014
vn -0.603563 -0.717134 0.348468
vn -0.321962 -0.765090 0.557655
vn -0.452519 -0.425332 0.783785
vn -0.802134 -0.376972 0.463113
vn 0.321962 -0.765090 0.557655
vn 0.452519 -0.425332 0.783785
vn 0.603563 -0.717135 0.348467
vn 0.802134 -0.376972 0.463113
vn -0.500000 0.000000 0.866025
vn -0.866025 -0.000000 0.500000
vn 0.500000 0.000000 0.866025
vn 0.866025 -0.000000 0.500000
vn -0.452519 0.425332 0.783785
vn -0.802134 0.376972 0.463112
vn 0.452519 0.425332 0.783785
vn 0.802134 0.376972 0.463112
vn -0.321962 0.765089 0.557655
vn -0.603564 0.717134 0.348468
vn 0.321962 0.765089 0.557655
vn 0.603564 0.717134 0.348468
vn 0.000000 -0.979382 0.202016
vn 0.000000 0.979383 0.202014
vn -0.603564 -0.717134 0.348468
vn -0.321963 -0.765089 0.557655
vn -0.452519 -0.425332 0.783785
vn -0.802134 -0.376972 0.463112
vn 0.321962 -0.765089 0.557655
vn 0.452519 -0.425332 0.783785
vn 0.603564 -0.717134 0.348468
vn 0.802134 -0.376972 0.463112
vn -0.500000 0.000000 0.866025
vn -0.866025 0.000000 0.500000
vn 0.500000 0.000000 0.866025
vn 0.866025 0.000000 0.500000
vn -0.452519 0.425332 0.783785
vn -0.802134 0.376972 0.463112
vn 0.452518 0.425332 0.783785
vn 0.802134 0.376972 0.463112
vn -0.321962 0.765089 0.557655
vn -0.603564 0.717134 0.348468
vn 0.321962 0.765089 0.557656
vn 0.603564 0.717134 0.348468
vn 0.000000 -0.979383 0.202015
vn 0.000000 0.979382 0.202015
vn -0.603563 -0.717134 0.348468
vn -0.321962 -0.765090 0.557654
vn -0.452519 -0.425332 0.783785
vn -0.802134 -0.376972 0.463112
vn 0.321962 -0.765090 0.557654
vn 0.452519 -0.425332 0.783785
vn 0.603564 -0.717134 0.348468
vn 0.802134 -0.376972 0.463112
vn -0.500000 0.000000 0.866025
vn -0.866026 -0.000000 0.500000
vn 0.500000 -0.000000 0.866025
vn 0.866025 0.000000 0.500000
vn -0.452519 0.425332 0.783785
vn -0.802135 0.376972 0.463112
vn 0.452518 0.425332 0.783785
vn 0.802134 0.376972 0.463113
vn -0.321962 0.765089 0.557655
vn -0.603564 0.717134 0.348467
vn 0.321962 0.765089 0.557655
vn 0.603563 0.717134 0.348468
vn -0.000000 -0.979383 0.202015
vn 0.000000 0.979383 0.202014
vn -0.603563 -0.717134 0.348467
vn -0.321962 -0.765089 0.557655
vn -0.452519 -0.425332 0.783785
vn -0.802134 -0.376972 0.463112
vn 0.321962 -0.765089 0.557655
vn 0.452519 -0.425332 0.783785
vn 0.603563 -0.717134 0.348468
vn 0.802134 -0.376972 0.463112
vn -0.500000 0.000000 0.866025
vn -0.866026 0.000000 0.500000
vn 0.500000 -0.000000 0.866025
vn 0.866025 -0.000000 0.500000
vn -0.452519 0.425332 0.783785
vn -0.802134 0.376972 0.463112
vn 0.452519 0.425332 0.783785
vn 0.802134 0.376972 0.463112
vn -0.321962 0.765089 0.557655
vn -0.603564 0.717134 0.348467
vn 0.321962 0.765089 0.557655
vn 0.603564 0.717134 0.348468
vn -0.000000 -0.979382 0.202015
vn -0.000000 0.979383 0.202015
vn -0.603564 -0.717134 0.348467
vn -0.321962 -0.765089 0.557655
vn -0.452519 -0.425332 0.783785
vn -0.802134 -0.376972 0.463112
vn 0.321962 -0.765090 0.557655
vn 0.452519 -0.425332 0.783785
vn 0.603563 -0.717134 0.348467
vn 0.802134 -0.376971 0.463112
vn -0.500000 -0.000000 0.866025
vn -0.866026 -0.000000 0.500000
vn 0.500000 0.000000 0.866026
vn 0.866025 0.000000 0.500000
vn -0.452519 0.425332 0.783785
vn -0.802134 0.376972 0.463112
vn 0.452519 0.425332 0.783785
vn 0.802135 0.376971 0.463112
vn -0.321962 0.765090 0.557654
vn -0.603563 0.717135 0.348467
vn 0.321962 0.765090 0.557654
vn 0.603563 0.717135 0.348467
vn -0.000000 -0.979383 0.202015
vn -0.000000 0.979383 0.202014
vn -0.441308 0.000000 0.897356
vn -0.015373 0.000000 0.999882
vn -0.015373 0.000000 0.999882
vn -0.441308 0.000000 0.897356
vn 0.441308 0.000000 0.897356
vn 0.654510 0.000000 0.756053
vn 0.654510 0.000000 0.756053
vn 0.441308 0.000000 0.897356
vn -0.673926 0.000000 0.738799
vn -0.673926 0.000000 0.738799
s 1
f 1/1/1 2/3/2 6/4/3 5/2/4
f 2/3/2 3/5/5 7/6/6 6/4/3
f 3/5/5 4/7/7 8/8/8 7/6/6
f 5/2/4 6/4/3 10/10/9 9/9/10
f 6/4/3 7/6/6 11/11/11 10/10/9
f 7/6/6 8/8/8 12/12/12 11/11/11
f 9/9/10 10/10/9 14/14/13 13/13/14
f 10/10/9 11/11/11 15/15/15 14/14/13
f 11/11/11 12/12/12 16/16/16 15/15/15
f 13/13/14 14/14/13 18/18/17 17/17/18
f 14/14/13 15/15/15 19/19/19 18/18/17
f 15/15/15 16/16/16 20/20/20 19/19/19
f 2/3/2 1/1/1 21/21/21
f 3/5/5 2/3/2 21/21/21
f 4/7/7 3/5/5 21/21/21
f 17/17/18 18/18/17 22/22/22
f 18/18/17 19/19/19 22/22/22
f 19/19/19 20/20/20 22/22/22
s 2
f 23/23/23 24/24/24 28/25/25 27/26/26
f 24/24/24 25/27/27 29/28/28 28/25/25
f 25/27/27 26/29/29 30/30/30 29/28/28
f 27/26/26 28/25/25 32/31/31 31/32/32
f 28/25/25 29/28/28 33/33/33 32/31/31
f 29/28/28 30/30/30 34/34/34 33/33/33
f 31/32/32 32/31/31 36/35/35 35/36/36
f 32/31/31 33/33/33 37/37/37 36/35/35
f 33/33/33 34/34/34 38/38/38 37/37/37
f 35/36/36 36/35/35 40/39/39 39/40/40
f 36/35/35 37/37/37 41/41/41 40/39/39
f 37/37/37 38/38/38 42/42/42 41/41/41
f 24/24/24 23/23/23 43/43/43
f 25/27/27 24/24/24 43/43/43
f 26/29/29 25/27/27 43/43/43
f 39/40/40 40/39/39 44/44/44
f 40/39/39 41/41/41 44/44/44
f 41/41/41 42/42/42 44/44/44
s 3
f 45/45/45 46/46/46 50/47/47 49/48/48
f 46/46/46 47/49/49 51/50/50 50/47/47
f 47/49/49 48/51/51 52/52/52 51/50/50
f 49/48/48 50/47/47 54/53/53 53/54/54
f 50/47/47 51/50/50 55/55/55 54/53/53
f 51/50/50 52/52/52 56/56/56 55/55/55
f 53/54/54 54/53/53 58/57/57 57/58/58
f 54/53/53 55/55/55 59/59/59 58/57/57
f 55/55/55 56/56/56 60/60/60 59/59/59
f 57/58/58 58/57/57 62/61/61 61/62/62
f 58/57/57 59/59/59 63/63/63 62/61/61
f 59/59/59 60/60/60 64/64/64 63/63/63
f 46/46/46 45/45/45 65/65/65
f 47/49/49 46/46/46 65/65/65
f 48/51/51 47/49/49 65/65/65
f 61/62/62 62/61/61 66/66/66
f 62/61/61 63/63/63 66/66/66
f 63/63/63 64/64/64 66/66/66
s 4
f 67/67/67 68/68/68 72/69/69 71/70/70
f 68/68/68 69/71/71 73/72/72 72/69/69
f 69/71/71 70/73/73 74/74/74 73/72/72
f 71/70/70 72/69/69 76/75/75 75/76/76
f 72/69/69 73/72/72 77/77/77 76/75/75
f 73/72/72 74/74/74 78/78/78 77/77/77
f 75/76/76 76/75/75 80/79/79 79/80/80
f 76/75/75 77/77/77 81/81/81 80/79/79
f 77/77/77 78/78/78 82/82/82 81/81/81
f 79/80/80 80/79/79 84/83/83 83/84/84
f 80/79/79 81/81/81 85/85/85 84/83/83
f 81/81/81 82/82/82 86/86/86 85/85/85
f 68/68/68 67/67/67 87/87/87
f 69/71/71 68/68/68 87/87/87
f 70/73/73 69/71/71 87/87/87
f 83/84/84 84/83/83 88/88/88
f 84/83/83 85/85/85 88/88/88
f 85/85/85 86/86/86 88/88/88
s 5
f 89/89/89 90/90/90 94/91/91 93/92/92
f 90/90/90 91/93/93 95/94/94 94/91/91
f 91/93/93 92/95/95 96/96/96 95/94/94
f 93/92/92 94/91/91 98/97/97 97/98/98
f 94/91/91 95/94/94 99/99/99 98/97/97
f 95/94/94 96/96/96 100/100/100 99/99/99
f 97/98/98 98/97/97 102/101/101 101/102/102
f 98/97/97 99/99/99 103/103/103 102/101/101
f 99/99/99 100/100/100 104/104/104 103/103/103
f 101/102/102 102/101/101 106/105/105 105/106/106
f 102/101/101 103/103/103 107/107/107 106/105/105
f 103/103/103 104/104/104 108/108/108 107/107/107
f 90/90/90 89/89/89 109/109/109
f 91/93/93 90/90/90 109/109/109
f 92/95/95 91/93/93 109/109/109
f 105/106/106 106/105/105 110/110/110
f 106/105/105 107/107/107 110/110/110
f 107/107/107 108/108/108 110/110/110
s 6
f 111/111/111 112/112/112 116/113/113 115/114/114
f 112/112/112 113/115/115 117/116/116 116/113/113
f 113/115/115 114/117/117 118/118/118 117/116/116
f 115/114/114 116/113/113 120/119/119 119/120/120
f 116/113/113 117/116/116 121/121/121 120/119/119
f 117/116/116 118/118/118 122/122/122 121/121/121
f 119/120/120 120/119/119 124/123/123 123/124/124
f 120/119/119 121/121/121 125/125/125 124/123/123
f 121/121/121 122/122/122 126/126/126 125/125/125
f 123/124/124 124/123/123 128/127/127 127/128/128
f 124/123/123 125/125/125 129/129/129 128/127/127
f 125/125/125 126/126/126 130/130/130 129/129/129
f 112/112/112 111/111/111 131/131/131
f 113/115/115 112/112/112 131/131/131
f 114/117/117 113/115/115 131/131/131
f 127/128/128 128/127/127 132/132/132
f 128/127/127 129/129/129 132/132/132
f 129/129/129 130/130/130 132/132/132
s 7
f 133/133/133 134/134/134 138/135/135 137/136/136
f 134/134/134 135/137/137 139/138/138 138/135/135
f 135/137/137 136/139/139 140/140/140 139/138/138
f 137/136/136 138/135/135 142/141/141 141/142/142
f 138/135/135 139/138/138 143/143/143 142/141/141
f 139/138/138 140/140/140 144/144/144 143/143/143
f 141/142/142 142/141/141 146/145/145 145/146/146
f 142/141/141 143/143/143 147/147/147 146/145/145
f 143/143/143 144/144/144 148/148/148 147/147/147
f 145/146/146 146/145/145 150/149/149 149/150/150
f 146/145/145 147/147/147 151/151/151 150/149/149
f 147/147/147 148/148/148 152/152/152 151/151/151
f 134/134/134 133/133/133 153/153/153
f 135/137/137 134/134/134 153/153/153
f 136/139/139 135/137/137 153/153/153
f 149/150/150 150/149/149 154/154/154
f 150/149/149 151/151/151 154/154/154
f 151/151/151 152/152/152 154/154/154
s 8
f 155/155/155 156/156/156 160/157/157 159/158/158
f 156/156/156 157/159/159 161/160/160 160/157/157
f 157/159/159 158/161/161 162/162/162 161/160/160
f 159/158/158 160/157/157 164/163/163 163/164/164
f 160/157/157 161/160/160 165/165/165 164/163/163
f 161/160/160 162/162/162 166/166/166 165/165/165
f 163/164/164 164/163/163 168/167/167 167/168/168
f 164/163/163 165/165/165 169/169/169 168/167/167
f 165/165/165 166/166/166 170/170/170 169/169/169
f 167/168/168 168/167/167 172/171/171 171/172/172
f 168/167/167 169/169/169 173/173/173 172/171/171
f 169/169/169 170/170/170 174/174/174 173/173/173
f 156/156/156 155/155/155 175/175/175
f 157/159/159 156/156/156 175/175/175
f 158/161/161 157/159/159 175/175/175
f 171/172/172 172/171/171 176/176/176
f 172/171/171 173/173/173 176/176/176
f 173/173/173 174/174/174 176/176/176
s 9
f 186/177/177 178/178/178 181/179/179 185/180/180
f 184/181/181 179/182/182 182/183/183 183/184/184
f 178/178/178 184/181/181 183/184/184 181/179/179
f 177/185/185 186/177/177 185/180/180 180/186/186
