# This file uses centimeters as units for non-parametric coordinates.

v 0.523290 0.906364 -0.322313
v -0.523289 0.906364 -0.322313
v -1.046579 0.000000 -0.322313
v -0.523290 -0.906364 -0.322313
v 0.523289 -0.906364 -0.322313
v 1.046579 -0.000000 -0.322313
v 0.740043 1.281792 0.058186
v -0.740043 1.281792 0.058186
v -1.480086 0.000000 0.058186
v -0.740043 -1.281792 0.058186
v 0.740043 -1.281792 0.058186
v 1.480086 -0.000000 0.058186
v 0.523290 0.906364 0.438686
v -0.523289 0.906364 0.438686
v -1.046579 0.000000 0.438686
v -0.523290 -0.906364 0.438686
v 0.523289 -0.906364 0.438686
v 1.046579 -0.000000 0.438686
v 0.000000 -0.000000 -0.479921
v 0.000000 -0.000000 0.596294
v 0.950867 0.017963 0.000000
v -0.950867 0.017964 0.000000
v 0.950867 -3.720629 -0.000001
v -0.950867 -3.720628 0.000000
v -0.950867 -0.017963 0.000000
v 0.950867 -0.017964 0.000000
v -0.950867 3.720629 -0.000001
v 0.950867 3.720628 0.000000
v -0.017963 0.950867 0.000000
v -0.017964 -0.950867 0.000000
v 3.720629 0.950867 -0.000001
v 3.720628 -0.950867 0.000000
v 0.017963 -0.950867 0.000000
v 0.017964 0.950867 0.000000
v -3.720629 -0.950867 -0.000001
v -3.720628 0.950867 0.000000
v 0.685066 -0.659663 -0.448508
v -0.659662 0.685066 -0.448508
v -1.958517 -3.303247 -0.448508
v -3.303246 -1.958517 -0.448508
v -0.685066 0.659663 -0.448508
v 0.659662 -0.685066 -0.448508
v 1.958517 3.303247 -0.448508
v 3.303246 1.958517 -0.448508
v 0.659663 0.685066 -0.448508
v -0.685066 -0.659662 -0.448508
v 3.303247 -1.958517 -0.448508
v 1.958517 -3.303246 -0.448508
v -0.659663 -0.685066 -0.448508
v 0.685066 0.659662 -0.448508
v -3.303247 1.958517 -0.448508
v -1.958517 3.303246 -0.448508
v -0.521571 -9.427984 0.034335
v 0.477380 -0.993272 0.034335
v 0.087963 -1.305033 -0.965665
v 0.866797 -0.681511 -0.965665
v -0.907970 -9.111942 -0.965665
v -0.135172 -9.744024 -0.965665
v 1.327261 -4.768600 0.034335
v 0.842668 -4.782725 -0.965665
v 1.811854 -4.754476 -0.965665
v 0.753628 -7.595145 0.034335
v 0.309978 -7.420286 -0.965665
v 1.197277 -7.770004 -0.965665
v 1.254165 -2.314498 0.034335
v 0.821268 -2.546779 -0.965665
v 1.687063 -2.082217 -0.965665
vt 0.300078 0.905253
vt 0.149765 0.905253
vt 0.118634 0.959174
vt 0.331209 0.959174
vt 0.074609 0.775078
vt 0.012347 0.775078
vt 0.149765 0.644903
vt 0.118634 0.590983
vt 0.300078 0.644903
vt 0.331209 0.590983
vt 0.375235 0.775078
vt 0.437496 0.775078
vt 0.149765 0.905253
vt 0.300078 0.905253
vt 0.074609 0.775078
vt 0.149765 0.644903
vt 0.300078 0.644903
vt 0.375235 0.775078
vt 0.224922 0.775078
vt 0.224922 0.775078
vt 0.973688 0.964144
vt 0.455434 0.964144
vt 0.455434 0.024853
vt 0.973688 0.024853
vt 0.973688 0.964144
vt 0.455434 0.964144
vt 0.455434 0.024853
vt 0.973688 0.024853
vt 0.973688 0.964144
vt 0.455434 0.964144
vt 0.455434 0.024853
vt 0.973688 0.024853
vt 0.973688 0.964144
vt 0.455434 0.964144
vt 0.455434 0.024853
vt 0.973688 0.024853
vt 0.973688 0.964144
vt 0.455434 0.964144
vt 0.455434 0.024853
vt 0.973688 0.024853
vt 0.973688 0.964144
vt 0.455434 0.964144
vt 0.455434 0.024853
vt 0.973688 0.024853
vt 0.973688 0.964144
vt 0.455434 0.964144
vt 0.455434 0.024853
vt 0.973688 0.024853
vt 0.973688 0.964144
vt 0.455434 0.964144
vt 0.455434 0.024853
vt 0.973688 0.024853
vt 0.027540 0.588034
vt 0.052072 0.612723
vt 0.008956 0.563778
vt 0.092067 0.172228
vt 0.153117 0.159681
vt 0.089564 0.017483
vt 0.032707 0.049514
vt 0.058161 0.033282
vt 0.119618 0.165738
vt 0.096673 0.348181
vt 0.124733 0.354329
vt 0.092409 0.511641
vt 0.070133 0.492018
vt 0.158741 0.360910
vt 0.120635 0.531698
vn 0.264441 0.458024 -0.848696
vn -0.264440 0.458025 -0.848696
vn -0.500000 0.866026 0.000000
vn 0.500000 0.866025 0.000000
vn -0.528881 0.000000 -0.848696
vn -1.000000 0.000000 0.000000
vn -0.264441 -0.458024 -0.848696
vn -0.500000 -0.866025 -0.000000
vn 0.264441 -0.458025 -0.848696
vn 0.500000 -0.866025 0.000000
vn 0.528881 -0.000000 -0.848696
vn 1.000000 -0.000000 0.000000
vn -0.264441 0.458025 0.848696
vn 0.264441 0.458025 0.848696
vn -0.528881 0.000000 0.848696
vn -0.264441 -0.458025 0.848696
vn 0.264441 -0.458025 0.848696
vn 0.528881 -0.000000 0.848696
vn -0.000000 -0.000000 -1.000000
vn -0.000000 -0.000000 1.000000
vn 0.000000 -0.000000 1.000000
vn 0.000000 -0.000000 1.000000
vn 0.000000 -0.000000 1.000000
vn 0.000000 -0.000000 1.000000
vn -0.000000 0.000000 1.000000
vn -0.000000 0.000000 1.000000
vn -0.000000 0.000000 1.000000
vn -0.000000 0.000000 1.000000
vn 0.000000 0.000000 1.000000
vn 0.000000 0.000000 1.000000
vn 0.000000 0.000000 1.000000
vn 0.000000 0.000000 1.000000
vn -0.000000 -0.000000 1.000000
vn -0.000000 -0.000000 1.000000
vn -0.000000 -0.000000 1.000000
vn -0.000000 -0.000000 1.000000
vn 0.000000 -0.000000 1.000000
vn 0.000000 -0.000000 1.000000
vn 0.000000 -0.000000 1.000000
vn 0.000000 -0.000000 1.000000
vn -0.000000 0.000000 1.000000
vn -0.000000 0.000000 1.000000
vn -0.000000 0.000000 1.000000
vn -0.000000 0.000000 1.000000
vn 0.000000 0.000000 1.000000
vn 0.000000 0.000000 1.000000
vn 0.000000 0.000000 1.000000
vn 0.000000 0.000000 1.000000
vn -0.000000 -0.000000 1.000000
vn -0.000000 -0.000000 1.000000
vn -0.000000 -0.000000 1.000000
vn -0.000000 -0.000000 1.000000
vn 0.002159 0.217163 0.976133
vn 0.666542 0.639112 -0.383742
vn -0.835707 -0.274820 -0.475465
vn -0.798458 0.321513 -0.509013
vn 0.869348 -0.340749 -0.357945
vn 0.670090 -0.633697 -0.386533
vn -0.794472 0.392465 -0.463450
vn 0.016448 -0.156851 0.987485
vn 0.168028 -0.063457 0.983738
vn -0.872554 0.090150 -0.480128
vn 0.151590 -0.012234 0.988368
vn 0.241789 0.033401 0.969754
vn -0.827531 -0.171239 -0.534669
vn 0.928404 -0.080424 -0.362764
vn 0.917726 0.223724 -0.328217
s 1
f 1/1/1 2/2/2 8/3/3 7/4/4
f 2/2/2 3/5/5 9/6/6 8/3/3
f 3/5/5 4/7/7 10/8/8 9/6/6
f 4/7/7 5/9/9 11/10/10 10/8/8
f 5/9/9 6/11/11 12/12/12 11/10/10
f 6/11/11 1/1/1 7/4/4 12/12/12
f 7/4/4 8/3/3 14/13/13 13/14/14
f 8/3/3 9/6/6 15/15/15 14/13/13
f 9/6/6 10/8/8 16/16/16 15/15/15
f 10/8/8 11/10/10 17/17/17 16/16/16
f 11/10/10 12/12/12 18/18/18 17/17/17
f 12/12/12 7/4/4 13/14/14 18/18/18
f 2/2/2 1/1/1 19/19/19
f 3/5/5 2/2/2 19/19/19
f 4/7/7 3/5/5 19/19/19
f 5/9/9 4/7/7 19/19/19
f 6/11/11 5/9/9 19/19/19
f 1/1/1 6/11/11 19/19/19
f 13/14/14 14/13/13 20/20/20
f 14/13/13 15/15/15 20/20/20
f 15/15/15 16/16/16 20/20/20
f 16/16/16 17/17/17 20/20/20
f 17/17/17 18/18/18 20/20/20
f 18/18/18 13/14/14 20/20/20
s off
f 24/21/21 23/22/22 21/23/23 22/24/24
f 28/25/25 27/26/26 25/27/27 26/28/28
f 32/29/29 31/30/30 29/31/31 30/32/32
f 36/33/33 35/34/34 33/35/35 34/36/36
f 40/37/37 39/38/38 37/39/39 38/40/40
f 44/41/41 43/42/42 41/43/43 42/44/44
f 48/45/45 47/46/46 45/47/47 46/48/48
f 52/49/49 51/50/50 49/51/51 50/52/52
s 2
f 54/53/53 56/54/54 55/55/55
f 63/56/56 64/57/57 58/58/58 57/59/59
f 57/59/59 58/58/58 53/60/60
f 53/60/60 58/58/58 64/57/57 62/61/61
f 57/59/59 53/60/60 62/61/61 63/56/56
f 60/62/62 59/63/63 65/64/64 66/65/65
f 61/66/66 60/62/62 66/65/65 67/67/67
f 65/64/64 59/63/63 61/66/66 67/67/67
f 63/56/56 62/61/61 59/63/63 60/62/62
f 64/57/57 63/56/56 60/62/62 61/66/66
f 59/63/63 62/61/61 64/57/57 61/66/66
f 66/65/65 65/64/64 54/53/53 55/55/55
f 55/55/55 56/54/54 67/67/67 66/65/65
f 65/64/64 67/67/67 56/54/54 54/53/53
