# This file uses centimeters as units for non-parametric coordinates.

v -0.997397 0.005109 -0.000000
v -0.705267 0.005109 0.476581
v -0.000000 0.005109 0.673988
v 0.705267 0.005109 0.476581
v 0.997398 0.005109 -0.000000
v -1.000000 1.484697 0.000000
v -0.707107 1.484697 0.477825
v 0.000000 1.484697 0.675746
v 0.707107 1.484697 0.477825
v 1.000000 1.484697 0.000000
v -0.923879 1.867381 0.000000
v -0.653281 1.867381 0.441453
v 0.000000 1.867381 0.624308
v 0.653281 1.867381 0.441453
v 0.923880 1.867381 0.000000
v -0.707107 2.191804 0.000000
v -0.500000 2.191804 0.337873
v 0.000000 2.191804 0.477825
v 0.500000 2.191804 0.337873
v 0.707107 2.191804 0.000000
v -0.382683 2.408577 0.000000
v -0.270598 2.408577 0.182856
v 0.000000 2.408577 0.258597
v 0.270598 2.408577 0.182856
v 0.382683 2.408577 0.000000
v 0.000000 2.484697 0.000000
vt 0.024325 0.027743
vt 0.228073 0.026317
vt 0.249836 0.542308
vt 0.053889 0.573181
vt 0.491081 0.025420
vt 0.494225 0.525385
vt 0.754496 0.025845
vt 0.738442 0.538819
vt 0.959331 0.026972
vt 0.935823 0.569711
vt 0.276021 0.669430
vt 0.100371 0.722093
vt 0.494930 0.648617
vt 0.714424 0.665323
vt 0.888553 0.718737
vt 0.325009 0.784834
vt 0.198627 0.848330
vt 0.495818 0.764386
vt 0.666534 0.781501
vt 0.790728 0.842387
vt 0.397893 0.885851
vt 0.335660 0.935108
vt 0.496297 0.870341
vt 0.594561 0.882768
vt 0.657067 0.925857
vt 0.497372 0.966083
vn -0.852574 -0.001500 0.522604
vn -0.559897 -0.001393 0.828561
vn -0.559661 0.029077 0.828211
vn -0.852157 0.031306 0.522348
vn 0.000000 -0.001189 0.999999
vn 0.000000 0.024817 0.999692
vn 0.559897 -0.001393 0.828561
vn 0.559661 0.029077 0.828211
vn 0.852574 -0.001500 0.522604
vn 0.852157 0.031306 0.522348
vn -0.536909 0.283603 0.794543
vn -0.812380 0.303427 0.497966
vn 0.000000 0.244719 0.969594
vn 0.536909 0.283603 0.794543
vn 0.812380 0.303427 0.497966
vn -0.461913 0.565139 0.683560
vn -0.686127 0.593587 0.420576
vn 0.000000 0.504691 0.863300
vn 0.461913 0.565139 0.683560
vn 0.686127 0.593587 0.420576
vn -0.327697 0.810832 0.484940
vn -0.474745 0.830622 0.291005
vn 0.000000 0.763516 0.645789
vn 0.327697 0.810831 0.484940
vn 0.474745 0.830622 0.291005
vn 0.000000 0.979018 0.203776
s 1
f 1/1/1 2/2/2 7/3/3 6/4/4
f 2/2/2 3/5/5 8/6/6 7/3/3
f 3/5/5 4/7/7 9/8/8 8/6/6
f 4/7/7 5/9/9 10/10/10 9/8/8
f 6/4/4 7/3/3 12/11/11 11/12/12
f 7/3/3 8/6/6 13/13/13 12/11/11
f 8/6/6 9/8/8 14/14/14 13/13/13
f 9/8/8 10/10/10 15/15/15 14/14/14
f 11/12/12 12/11/11 17/16/16 16/17/17
f 12/11/11 13/13/13 18/18/18 17/16/16
f 13/13/13 14/14/14 19/19/19 18/18/18
f 14/14/14 15/15/15 20/20/20 19/19/19
f 16/17/17 17/16/16 22/21/21 21/22/22
f 17/16/16 18/18/18 23/23/23 22/21/21
f 18/18/18 19/19/19 24/24/24 23/23/23
f 19/19/19 20/20/20 25/25/25 24/24/24
f 21/22/22 22/21/21 26/26/26
f 22/21/21 23/23/23 26/26/26
f 23/23/23 24/24/24 26/26/26
f 24/24/24 25/25/25 26/26/26
