# This file uses centimeters as units for non-parametric coordinates.

v 5.514203 2.708887 0.000000
v 4.220389 5.005375 0.000000
v 2.284060 6.539840 0.000000
v 0.000003 7.078673 0.000000
v -2.284054 6.539844 0.000000
v -4.220385 5.005381 0.000000
v -5.514200 2.708894 0.000000
v -5.968528 0.000003 0.000000
v -5.514202 -2.708889 0.000000
v -4.220387 -5.005377 0.000000
v -2.284058 -6.539842 0.000000
v -0.000001 -7.078674 0.000000
v 2.284056 -6.539843 0.000000
v 4.220386 -5.005379 0.000000
v 5.514201 -2.708891 0.000000
v 5.968528 -0.000000 0.000000
v 6.543499 3.214536 0.370100
v 5.008179 5.939693 0.370100
v 2.710409 7.760585 0.370099
v 0.000004 8.399999 0.370100
v -2.710402 7.760589 0.370099
v -5.008174 5.939699 0.370100
v -6.543496 3.214544 0.370100
v -7.082631 0.000003 0.370100
v -6.543499 -3.214538 0.370100
v -5.008178 -5.939695 0.370100
v -2.710407 -7.760588 0.370100
v -0.000001 -8.400000 0.370100
v 2.710404 -7.760588 0.370100
v 5.008176 -5.939697 0.370100
v 6.543498 -3.214541 0.370100
v 7.082631 0.000000 0.370100
v 7.391323 3.631035 0.000000
v 5.657075 6.709283 0.000000
v 3.061589 8.766104 0.000000
v 0.000004 9.488365 0.000001
v -3.061582 8.766108 0.000000
v -5.657070 6.709291 0.000000
v -7.391321 3.631044 0.000000
v -8.000309 0.000003 -0.000000
v -7.391322 -3.631037 0.000000
v -5.657074 -6.709286 0.000000
v -3.061587 -8.766106 0.000000
v -0.000001 -9.488365 0.000000
v 3.061585 -8.766107 0.000000
v 5.657072 -6.709288 0.000000
v 7.391322 -3.631041 0.000000
v 8.000309 0.000000 -0.000000
v 0.000001 0.000000 0.000000
vt 0.062500 0.988018
vt 0.000000 0.988018
vt 0.000000 0.836216
vt 0.062500 0.836216
vt 0.125000 0.988018
vt 0.125000 0.836216
vt 0.187500 0.988018
vt 0.187500 0.836216
vt 0.250000 0.988018
vt 0.250000 0.836216
vt 0.312500 0.988018
vt 0.312500 0.836216
vt 0.375000 0.988018
vt 0.375000 0.836216
vt 0.437500 0.988018
vt 0.437500 0.836216
vt 0.500000 0.988018
vt 0.500000 0.836216
vt 0.562500 0.988018
vt 0.562500 0.836216
vt 0.625000 0.988018
vt 0.625000 0.836216
vt 0.687500 0.988018
vt 0.687500 0.836216
vt 0.750000 0.988018
vt 0.750000 0.836216
vt 0.812500 0.988018
vt 0.812500 0.836216
vt 0.875000 0.988018
vt 0.875000 0.836216
vt 0.937500 0.988018
vt 0.937500 0.836216
vt 1.000000 0.988018
vt 1.000000 0.836216
vt 0.000000 0.684414
vt 0.062500 0.684414
vt 0.125000 0.684414
vt 0.187500 0.684414
vt 0.250000 0.684414
vt 0.312500 0.684414
vt 0.375000 0.684414
vt 0.437500 0.684414
vt 0.500000 0.684414
vt 0.562500 0.684414
vt 0.625000 0.684414
vt 0.687500 0.684414
vt 0.750000 0.684414
vt 0.812500 0.684414
vt 0.875000 0.684414
vt 0.937500 0.684414
vt 1.000000 0.684414
vt 0.351755 0.643097
vt 0.225928 0.572284
vt 0.500000 0.340980
vt 0.141827 0.466257
vt 0.112254 0.341157
vt 0.141712 0.216031
vt 0.225716 0.109927
vt 0.351478 0.038998
vt 0.499850 0.014044
vt 0.648245 0.038862
vt 0.774072 0.109675
vt 0.858173 0.215703
vt 0.887746 0.340802
vt 0.858288 0.465928
vt 0.774284 0.572033
vt 0.648522 0.642961
vt 0.500150 0.667915
vn -0.081381 -0.066233 0.994480
vn -0.103180 -0.034744 0.994056
vn 0.061689 0.016880 0.997953
vn 0.054161 0.037098 0.997843
vn -0.045556 -0.089598 0.994936
vn 0.033535 0.057066 0.997807
vn -0.000000 -0.098526 0.995135
vn 0.000000 0.066006 0.997819
vn 0.045556 -0.089598 0.994936
vn -0.033535 0.057066 0.997807
vn 0.081381 -0.066234 0.994480
vn -0.054161 0.037098 0.997843
vn 0.103180 -0.034744 0.994056
vn -0.061689 0.016880 0.997953
vn 0.110386 -0.000000 0.993889
vn -0.062958 -0.000000 0.998016
vn 0.103180 0.034744 0.994056
vn -0.061689 -0.016880 0.997953
vn 0.081381 0.066234 0.994480
vn -0.054161 -0.037098 0.997843
vn 0.045556 0.089598 0.994936
vn -0.033535 -0.057067 0.997807
vn 0.000000 0.098526 0.995134
vn 0.000000 -0.066006 0.997819
vn -0.045556 0.089598 0.994936
vn 0.033535 -0.057067 0.997807
vn -0.081381 0.066234 0.994480
vn 0.054161 -0.037098 0.997843
vn -0.103180 0.034744 0.994056
vn 0.061689 -0.016880 0.997953
vn -0.110386 0.000000 0.993889
vn 0.062958 -0.000000 0.998016
vn 0.344454 0.125554 0.930370
vn 0.261453 0.230319 0.937334
vn 0.140152 0.298528 0.944055
vn 0.000000 0.321945 0.946758
vn -0.140151 0.298528 0.944055
vn -0.261452 0.230319 0.937334
vn -0.344454 0.125554 0.930370
vn -0.374028 0.000000 0.927418
vn -0.344454 -0.125554 0.930370
vn -0.261453 -0.230319 0.937334
vn -0.140152 -0.298528 0.944054
vn -0.000000 -0.321946 0.946758
vn 0.140151 -0.298528 0.944054
vn 0.261453 -0.230319 0.937334
vn 0.344454 -0.125554 0.930370
vn 0.374028 -0.000000 0.927418
vn 0.000000 0.000000 1.000000
s 1
f 2/1/1 1/2/2 17/3/3 18/4/4
f 3/5/5 2/1/1 18/4/4 19/6/6
f 4/7/7 3/5/5 19/6/6 20/8/8
f 5/9/9 4/7/7 20/8/8 21/10/10
f 6/11/11 5/9/9 21/10/10 22/12/12
f 7/13/13 6/11/11 22/12/12 23/14/14
f 8/15/15 7/13/13 23/14/14 24/16/16
f 9/17/17 8/15/15 24/16/16 25/18/18
f 10/19/19 9/17/17 25/18/18 26/20/20
f 11/21/21 10/19/19 26/20/20 27/22/22
f 12/23/23 11/21/21 27/22/22 28/24/24
f 13/25/25 12/23/23 28/24/24 29/26/26
f 14/27/27 13/25/25 29/26/26 30/28/28
f 15/29/29 14/27/27 30/28/28 31/30/30
f 16/31/31 15/29/29 31/30/30 32/32/32
f 1/33/2 16/31/31 32/32/32 17/34/3
f 18/4/4 17/3/3 33/35/33 34/36/34
f 19/6/6 18/4/4 34/36/34 35/37/35
f 20/8/8 19/6/6 35/37/35 36/38/36
f 21/10/10 20/8/8 36/38/36 37/39/37
f 22/12/12 21/10/10 37/39/37 38/40/38
f 23/14/14 22/12/12 38/40/38 39/41/39
f 24/16/16 23/14/14 39/41/39 40/42/40
f 25/18/18 24/16/16 40/42/40 41/43/41
f 26/20/20 25/18/18 41/43/41 42/44/42
f 27/22/22 26/20/20 42/44/42 43/45/43
f 28/24/24 27/22/22 43/45/43 44/46/44
f 29/26/26 28/24/24 44/46/44 45/47/45
f 30/28/28 29/26/26 45/47/45 46/48/46
f 31/30/30 30/28/28 46/48/46 47/49/47
f 32/32/32 31/30/30 47/49/47 48/50/48
f 17/34/3 32/32/32 48/50/48 33/51/33
f 1/52/2 2/53/1 49/54/49
f 2/53/1 3/55/5 49/54/49
f 3/55/5 4/56/7 49/54/49
f 4/56/7 5/57/9 49/54/49
f 5/57/9 6/58/11 49/54/49
f 6/58/11 7/59/13 49/54/49
f 7/59/13 8/60/15 49/54/49
f 8/60/15 9/61/17 49/54/49
f 9/61/17 10/62/19 49/54/49
f 10/62/19 11/63/21 49/54/49
f 11/63/21 12/64/23 49/54/49
f 12/64/23 13/65/25 49/54/49
f 13/65/25 14/66/27 49/54/49
f 14/66/27 15/67/29 49/54/49
f 15/67/29 16/68/31 49/54/49
f 16/68/31 1/52/2 49/54/49
