# This file uses centimeters as units for non-parametric coordinates.

v 1.592161 -7.000000 2.360442
v 1.592161 2.360442 -2.360442
v 3.100283 -7.000000 -2.360442
v 2.335675 -7.000000 2.360442
v 3.100283 -7.000000 1.595835
v 3.100283 1.894924 -2.360442
v 2.815448 2.220863 -2.360442
v 2.462688 2.360442 -2.360442
v 3.100283 1.894924 1.595835
v 2.826419 2.220863 1.405808
v 1.592161 2.360442 1.870736
v 1.592161 1.894924 2.360439
v 2.426066 2.360442 1.870492
v 2.335675 1.894924 2.360439
v 3.100283 -4.950550 -2.360442
v 3.100283 -4.950550 1.595835
v 2.335675 -4.950550 2.360442
v 1.592160 -4.950550 2.360442
v 3.100283 -2.699286 -2.360442
v 3.100283 -2.699286 1.595835
v 2.335675 -2.699286 2.360441
v 1.592160 -2.699286 2.360441
v 3.100283 -0.991443 -2.360442
v 3.100283 -0.991443 1.595835
v 2.335675 -0.991443 2.360440
v 1.592160 -0.991443 2.360440
vt 1.001297 1.000000
vt 0.873176 1.000000
vt 0.872731 0.564407
vt 1.001297 0.564407
vt 0.003059 0.564407
vt 0.686452 0.564407
vt 0.686824 1.000000
vt 0.003059 1.000000
vt 0.170295 0.947200
vt 0.254967 0.949095
vt 0.264809 0.958719
vt 0.170110 0.955784
vt 0.170531 0.937396
vt 0.260057 0.939769
vt 0.003059 0.000000
vt 0.685357 0.000000
vt 0.685756 0.191790
vt 0.003059 0.191790
vt 0.871185 0.000000
vt 0.871889 0.191790
vt 1.001297 0.191790
vt 1.001297 0.000000
vt 0.686199 0.402267
vt 0.003059 0.402714
vt 0.872459 0.402043
vt 1.001297 0.401871
vt 0.279555 0.957561
vt 0.280874 0.975339
vt 0.265282 0.977141
vt 0.169702 0.975433
vn 0.000022 0.151933 0.988391
vn 0.000000 0.000001 1.000000
vn 0.452195 0.000000 0.891919
vn 0.433388 0.104277 0.895154
vn 1.000000 0.000000 0.000000
vn 0.996404 0.084734 -0.000141
vn 0.984679 0.068141 0.160514
vn 0.987137 0.000000 0.159879
vn 0.575291 0.817949 0.000002
vn 0.348169 0.937431 0.001117
vn 0.119661 0.985070 0.123769
vn 0.570809 0.819349 0.053326
vn 0.000014 0.995795 0.091611
vn 0.000000 1.000000 -0.000000
vn 0.000000 1.000000 -0.000000
vn 1.000000 0.000000 0.000000
vn 1.000000 0.000000 0.000000
vn 0.987137 0.000000 0.159879
vn 0.987137 0.000000 0.159879
vn 0.452196 0.000000 0.891919
vn 0.452196 0.000000 0.891918
vn 0.000000 0.000000 1.000000
vn 0.000000 0.000000 1.000000
vn 1.000000 0.000000 0.000000
vn 0.987137 0.000000 0.159879
vn 0.452196 0.000000 0.891919
vn 0.000000 0.000000 1.000000
s 1
f 12/1/1 26/4/2 25/3/3 14/2/4
f 23/5/5 6/8/6 9/7/7 24/6/8
f 24/6/8 9/7/7 14/2/4 25/3/3
f 7/9/9 8/12/10 13/11/11 10/10/12
f 7/9/9 10/10/12 9/14/7 6/13/6
f 10/10/12 13/11/11 14/27/4 9/14/7
f 12/28/1 14/27/4 13/11/11 11/29/13
f 8/12/14 2/30/15 11/29/13 13/11/11
f 3/15/16 15/18/17 16/17/18 5/16/19
f 5/16/19 16/17/18 17/20/20 4/19/21
f 18/21/22 1/22/23 4/19/21 17/20/20
f 15/18/17 19/24/24 20/23/25 16/17/18
f 16/17/18 20/23/25 21/25/26 17/20/20
f 22/26/27 18/21/22 17/20/20 21/25/26
f 19/24/24 23/5/5 24/6/8 20/23/25
f 20/23/25 24/6/8 25/3/3 21/25/26
f 26/4/2 22/26/27 21/25/26 25/3/3
