# This file uses centimeters as units for non-parametric coordinates.

v -0.603941 1.010562 -0.278580
v 0.007155 1.010562 0.360881
v 0.596786 1.010562 -0.286246
v 0.000000 1.868333 -0.067982
v 0.603941 -1.017739 -0.278580
v -0.007155 -1.017739 0.360881
v -0.596786 -1.017739 -0.286246
v -0.000000 -1.875510 -0.067982
v 0.906224 0.573913 -0.191885
v 0.920628 0.017303 0.390756
v 0.934526 -0.519757 -0.198870
v 1.701751 0.044038 0.000000
v -0.912762 -0.574082 -0.191885
v -0.927165 -0.017472 0.390756
v -0.941063 0.519588 -0.198870
v -1.708288 -0.044207 0.000000
v 0.746483 1.016061 0.474756
v 0.933081 0.829464 0.474756
v 0.933081 0.829464 -0.474756
v 0.746483 1.016061 -0.474756
v 0.933081 -0.829464 0.474756
v 0.746483 -1.016061 0.474756
v 0.746483 -1.016061 -0.474756
v 0.933081 -0.829464 -0.474756
v 0.000000 1.016061 0.474756
v 0.000000 1.016061 -0.474756
v 0.000000 -1.016061 -0.474756
v 0.000000 -1.016061 0.474756
v -0.746483 1.016061 0.474756
v -0.933081 0.829464 0.474756
v -0.933081 0.829464 -0.474756
v -0.746483 1.016061 -0.474756
v -0.933081 -0.829464 0.474756
v -0.746483 -1.016061 0.474756
v -0.746483 -1.016061 -0.474756
v -0.933081 -0.829464 -0.474756
vt 0.047723 0.285160
vt 0.267109 0.285206
vt 0.267105 0.790498
vt 0.492951 0.285262
vt 0.047723 0.285160
vt 0.267109 0.285206
vt 0.267105 0.790498
vt 0.492951 0.285262
vt 0.492951 0.285160
vt 0.273566 0.285206
vt 0.273570 0.790498
vt 0.047723 0.285262
vt 0.047723 0.285160
vt 0.267109 0.285206
vt 0.267105 0.790498
vt 0.492951 0.285262
vt 0.378597 0.059110
vt 0.378663 0.229084
vt 0.160693 0.229084
vt 0.160654 0.059110
vt 0.559041 0.054551
vt 0.559041 0.952406
vt 0.888860 0.952406
vt 0.888860 0.054551
vt 0.126017 0.059110
vt 0.126080 0.229084
vt 0.413307 0.059110
vt 0.413379 0.229084
vt 0.028301 0.229084
vt 0.028301 0.059110
vt 0.511700 0.059110
vt 0.511700 0.229084
vt 0.888860 0.952406
vt 0.888860 0.054551
vt 0.971305 0.136996
vt 0.971305 0.869962
vt 0.559041 0.952406
vt 0.559041 0.054551
vt 0.971305 0.869962
vt 0.971305 0.136996
vt 0.378597 0.059110
vt 0.160654 0.059110
vt 0.160693 0.229084
vt 0.378663 0.229084
vt 0.559041 0.054551
vt 0.888860 0.054551
vt 0.888860 0.952406
vt 0.559041 0.952406
vt 0.126017 0.059110
vt 0.126080 0.229084
vt 0.413379 0.229084
vt 0.413307 0.059110
vt 0.028301 0.229084
vt 0.028301 0.059110
vt 0.511700 0.059110
vt 0.511700 0.229084
vt 0.888860 0.952406
vt 0.971305 0.869962
vt 0.971305 0.136996
vt 0.888860 0.054551
vt 0.559041 0.952406
vt 0.559041 0.054551
vt 0.971305 0.136996
vt 0.971305 0.869962
vn -0.627213 0.571519 -0.529122
vn 0.006909 0.447230 0.894392
vn -0.008084 0.926883 -0.375264
vn 0.616951 0.567883 -0.544867
vn 0.627213 -0.571519 -0.529122
vn -0.006909 -0.447230 0.894392
vn 0.008084 -0.926883 -0.375264
vn -0.616951 -0.567883 -0.544867
vn 0.555102 0.641788 -0.529122
vn 0.447259 0.004663 0.894392
vn 0.926363 0.032059 -0.375264
vn 0.583653 -0.602054 -0.544867
vn -0.555102 -0.641788 -0.529122
vn -0.447259 -0.004663 0.894392
vn -0.926363 -0.032059 -0.375264
vn -0.583653 0.602054 -0.544867
vn 0.954714 -0.096529 0.281430
vn 0.954714 -0.096529 -0.281430
vn 0.954714 0.096529 -0.281430
vn 0.954714 0.096529 0.281430
vn 0.000000 -0.423320 -0.905980
vn 0.000000 0.423320 -0.905980
vn 0.092492 0.462505 -0.881779
vn 0.092492 -0.462505 -0.881779
vn 0.092492 0.462505 0.881779
vn 0.092492 -0.462505 0.881779
vn 0.000000 0.423320 0.905980
vn 0.000000 -0.423320 0.905980
vn -0.954714 -0.096529 0.281430
vn -0.954714 0.096529 0.281430
vn -0.954714 0.096529 -0.281430
vn -0.954714 -0.096529 -0.281430
vn -0.092492 -0.462505 -0.881779
vn -0.092492 0.462505 -0.881779
vn -0.092492 0.462505 0.881779
vn -0.092492 -0.462505 0.881779
s 1
f 1/1/1 2/2/2 4/3/3
f 2/2/2 3/4/4 4/3/3
f 3/4/4 1/1/1 4/3/3
s 2
f 5/5/5 6/6/6 8/7/7
f 6/6/6 7/8/8 8/7/7
f 7/8/8 5/5/5 8/7/7
s 3
f 9/9/9 10/10/10 12/11/11
f 10/10/10 11/12/12 12/11/11
f 11/12/12 9/9/9 12/11/11
s 4
f 13/13/13 14/14/14 16/15/15
f 14/14/14 15/16/16 16/15/15
f 15/16/16 13/13/13 16/15/15
s 5
f 21/17/17 24/18/18 19/19/19 18/20/20
f 27/21/21 26/22/22 20/23/23 23/24/24
f 17/25/25 18/20/20 19/19/19 20/26/23
f 21/17/17 22/27/26 23/28/24 24/18/18
f 26/29/22 25/30/27 17/25/25 20/26/23
f 28/31/28 27/32/21 23/28/24 22/27/26
f 17/33/25 22/34/26 21/35/17 18/36/20
f 25/37/27 28/38/28 22/34/26 17/33/25
f 23/24/24 20/23/23 19/39/19 24/40/18
f 33/41/29 30/42/30 31/43/31 36/44/32
f 27/45/21 35/46/33 32/47/34 26/48/22
f 29/49/35 32/50/34 31/43/31 30/42/30
f 33/41/29 36/44/32 35/51/33 34/52/36
f 26/53/22 32/50/34 29/49/35 25/54/27
f 28/55/28 34/52/36 35/51/33 27/56/21
f 29/57/35 30/58/30 33/59/29 34/60/36
f 25/61/27 29/57/35 34/60/36 28/62/28
f 35/46/33 36/63/32 31/64/31 32/47/34
